<?xml version="1.0" encoding="UTF-8"?><svg id="uuid-07495321-1337-4dcf-b86c-112e8a83679f" xmlns="http://www.w3.org/2000/svg" width="792" height="612" viewBox="0 0 792 612"><rect width="16" height="2.5" style="fill:#fff;"/><rect x="776" y="608.25" width="16" height="3.75" style="fill:#fff;"/><g><path d="m482.3,318.66c-2.16,3.19-5.42,4.4-9.03,4.86-1.01.13-1.99.53-3.15.29.6,1.2,1.15,2.28,1.69,3.37-.48,1.51.79,2.31,1.42,3.32.96,1.55,1.6,3.35,3.17,4.47,2.44,3.3,4.76,6.7,7.69,9.6,1.32,1.3,2.83,2.36,4.6,2.98-.26.07-.66.1-.37.51.31.42.7.79,1.32.57,1.84-.66,3.72-.94,5.68-.78.67.05,1.43-.01,1.41.94-.02.9-.76.78-1.37.78-4.51,0-9.02.05-13.53-.03-2.58-.04-4.77-.98-6.01-3.45-.21-.42-.35-.78-.9-.55-3.24-5.19-6.47-10.39-9.71-15.57-1.31-2.08-2.65-4.14-3.98-6.21-.26-.28-.61-.22-.93-.22-3.88,0-7.76.02-11.65.02-.58.43-.31,1.06-.31,1.59-.02,7.47-.02,14.94-.02,22.41-.09.16-.26.34-.24.49.19,1.33-.46,1.6-1.65,1.53-1.57-.09-3.15-.1-4.72,0-1.35.08-1.69-.45-1.69-1.74.04-19.26.03-38.52.03-57.78.81-.88,1.79-.27,2.68-.27,9.75-.04,19.49-.07,29.24,0,2.91.02,5.54,1.14,7.89,2.85,3.1,2.25,4.06,5.72,5.1,9.14,0,.76-.02,1.52,0,2.28.16,4.9-.17,9.71-2.74,14.08-.1.18-.06.36.11.5Zm-33.67,1.12c.29.53.87.45,1.27.43,5.46-.24,10.92-.02,16.39-.1.42,0,.87.11,1.21-.26,5.59-.84,8.54-3.44,9.59-8.66.35-1.75.43-3.55.42-5.36-.03-6.64-4.63-12.12-11.15-13.19-.46-.35-1-.25-1.51-.25-5.4,0-10.8,0-16.21,0-.49.34-.32.86-.32,1.31,0,8.27,0,16.53,0,24.8,0,.45-.19.97.32,1.3v-.02Z" style="fill:#2661af;"/><path d="m298.71,289.28c.1,0,.2,0,.3,0,.24.44.67.63,1.09.5,1.9-.62,2.76.15,2.89,2.02,0,19.35-.01,38.69-.02,58.04-2.46,0-4.92,0-7.38,0-11.35-16.98-22.71-33.96-34.06-50.93-.18-.28-.4-.53-.6-.8.03-.38-.18-.54-.52-.57-.48.18-.69.52-.51,1.01.31.79.18,1.6.18,2.41,0,14.97.01,29.94,0,44.91,0,4.44.3,3.6-3.74,3.74-1.19.04-1.44-.39-1.42-1.48.06-2.81.02-5.63.02-8.44,0-15.02,0-30.04-.02-45.05,0-.43.42-1.06-.3-1.37-.08-.03-.16-.04-.24-.04-2.49-1.94-5.41-2.06-8.37-1.98-1.74.05-1.74.1-1.61-1.73,2.14.01,4.29-.15,6.41.07,3.84.4,7.68.21,11.51.12,1.16-.03,2.05.21,2.54,1.08.68,1.19,1.57,2.23,2.3,3.38.54.85,1.01,1.82,2.05,2.22,3.35,4.84,6.72,9.67,10.05,14.52,6.03,8.77,12.04,17.55,18.06,26.33.02.37.28.35.54.33.48-.48.26-1.08.26-1.63.01-14.8.01-29.6,0-44.39,0-.82.06-1.58.58-2.25Z" style="fill:#2661af;"/><path d="m505.2,316.91c.46-6.86,2.16-13.31,6.49-18.81,3.9-4.95,9.04-7.72,15.33-8.34.65-.06,1.3-.21,1.94-.31,1.83,0,3.66,0,5.49,0,12.56.97,20.32,8.86,22.82,21.23-.39.41-.2.87-.14,1.34.27,2.04.64,4.08.72,6.13.18,4.31-.06,8.6-.99,12.86-.25,1.15-.79,2.4-.45,3.67-2.41,7.69-7.7,12.28-15.38,14.3-1.97.52-3.98.8-6.02.92-2.3,0-4.59-.01-6.89-.02-6.5-.5-12.41-2.38-16.89-7.44-2.99-3.38-4.53-7.45-5.41-11.8-.34-1.67-.72-3.33-.62-5.06,0-2.89,0-5.79,0-8.68Zm29.25,31.26c2.92-.18,5.51-1.2,7.81-3.01,2.28-1.79,3.55-4.26,4.73-6.8.08.21.12.56.26.61.46.17.33-.31.43-.51.38-.78.04-1.7.47-2.49.85-1.57.91-3.37,1.1-5.06.57-5.06.3-10.15.33-15.23.01-2.18-.36-4.33-.72-6.47-.78-4.66-2.32-9.03-4.83-13.05-.57-.91-.91-1.18-1.92-1.12-3.81-3.73-8.53-4.48-13.49-3.76-4.77.69-8,3.72-10.27,7.84-2.85,5.16-3.76,10.87-4.14,16.6-.29,4.34-.36,8.73.2,13.09.48,3.69,1,7.36,2.56,10.78,2.35,5.15,6.28,8.12,11.98,8.59,1.83.41,3.66.4,5.49,0Z" style="fill:#2661af;"/><path d="m330.75,345.57c.75.91,1.62,1.63,2.86,1.77.5.42,1.1.22,1.65.23,7.84.02,15.69.02,23.53.02.43.46,1,.3,1.48.25.99-.1,1.09.39.98,1.19-.12.89-.77.53-1.19.54-11.91.02-23.82.01-35.73.01-.19,0-.38-.01-.57,0-.57.01-.86-.34-.7-.81.36-1.05-.05-2.06-.05-3.09.02-17.96.02-35.92.02-53.87q.71-2,3.16-2.01c10.55,0,21.1.02,31.65-.03,1.31,0,2.03.3,1.79,1.74-8.61,0-17.21,0-25.82.02-.55,0-1.15-.19-1.64.24-.84.31-1.62.67-1.74,1.71-.08.22-.23.43-.23.65,0,7.61.03,15.22.05,22.83-.03.08-.04.17-.05.25.02.63.44.71.89.55.93-.34,1.89-.2,2.83-.2,6.38-.02,12.76,0,19.13,0,.38,0,.77-.03,1.14.02.73.1.84.68.86,1.27.02.7-.47.71-.98.71-7.7-.08-15.41.18-23.11-.14-.67-.03-1.06.1-1.08.9-.04,1.41-.08,2.8-.07,4.21.06,6.51.34,13.02-.11,19.53-.05.75.1,1.43,1.06,1.53Z" style="fill:#2561ad;"/><path d="m342.81,399.6c-1.73-5.49-3.45-10.97-5.19-16.45-1.3-4.08-2.62-8.15-3.93-12.23-.1-.3-.09-.67-.57-.95-.63,1.84-1.24,3.62-1.84,5.39-2.59,7.66-5.17,15.32-7.76,22.98-.45,1.32-2.44,2.12-3.67,1.46-.49-.27-.46-.79-.56-1.25-2.38-10.28-4.75-20.56-7.14-30.83-.6-2.57-.7-2.63-3.23-2.96-.36-.05-.91.04-.87-.48.03-.48.57-.4.94-.4,2.1,0,4.19.02,6.29-.02.8-.01,1.02.36,1.18,1.08,1.92,9.1,3.88,18.2,5.83,27.3.54-.1.48-.58.58-.9,2.91-8.56,5.83-17.11,8.67-25.69.44-1.33,1.02-1.87,2.49-1.82,3.33.12,3.31.04,4.16,3.22,2.12,7.9,4.27,15.78,6.42,23.67.14.5.33.98.6,1.79,1.23-5.31,2.39-10.32,3.53-15.34.9-3.94,1.78-7.88,2.67-11.82.31-1.35,1.78-2.05,3.03-1.45.5.24.32.63.24.98-1.12,5.3-2.25,10.6-3.38,15.9-1.33,6.27-2.66,12.55-4,18.82-1.5,0-3,0-4.49-.01Z" style="fill:#89a8d7;"/><path d="m378.77,341.87c-1.34-1.35-1.97-3.04-2.29-4.87.03-.1.06-.2.1-.3.41-.51.22-1.1.22-1.65.01-8.91,0-17.82,0-26.74,0-5.58.02-11.15-.01-16.73,0-1.26.45-1.85,1.76-1.81,1.81.06,3.62.01,5.43.02.52,0,1.11-.08,1.12.72.01,1.14.31,2.24.31,3.4-.03,13.92-.03,27.83-.01,41.75,0,.66-.31,1.48.58,1.9.72,1.84,1.87,3.4,3.19,4.84-.54.76,0,1,.56,1.36,1.67,1.06,3.52,1.84,4.98,3.22.18.17.39.29.64.19,1.08-.44,1.87.44,2.78.57.9.13,1.53-.25,2.36.85.66.88,2.62.75,3.9.21.79-.33,1.44-.38,2.63-.2-1.71.85-3.19.96-4.6.95-3.96-.03-7.83-.92-11.72-1.6-.93-.16-1.84-.44-2.75-.7-.37-.11-.71-.36-.74-.78-.03-.42.34-.5.66-.62.46-.17,1-.43.8-.98-.27-.71-.86-.23-1.35-.18-.74.08-1.07,1.11-1.61.99-1.03-.24-2.38-.59-2.87-1.36-.84-1.33-2.42-1.34-3.29-2.42-.24-.29-.52-.11-.78-.01Z" style="fill:#2661af;"/><path d="m390.81,230.03c.03,2.47.12,4.94-.29,7.39-.85,2.41-1.49,4.9-2.93,7.07-4.25,6.41-10.09,10.05-17.85,10.48-.87.05-1.01-.22-1.02-1-.04-2.97-.06-2.94,2.87-3.36,8.35-1.2,14.79-9.17,15.03-17.1.29-9.48-6.86-16.78-14.07-18.21-.33-.06-.65-.13-.98-.17-2.94-.33-2.91-.32-2.86-3.23.01-.89.31-1.14,1.16-1.13,2.87.04,5.59.73,8.12,1.98,6.99,3.45,11.28,9,12.58,16.76.03.18.15.34.22.51Z" style="fill:#8aa8d8;"/><path d="m413.73,241.72c-.41-1.85-1.17-3.6-1.46-5.5-.86-5.61.34-10.78,3.41-15.49,3.67-5.61,8.96-8.78,15.54-9.85,2.52-.41,3.64,1.04,2.78,3.52-.21.6-.67.43-1.05.47-4.47.43-8.42,2.09-11.52,5.36-4.98,5.24-6.55,11.47-4.25,18.32,2.27,6.76,7.17,10.81,14.26,12.08.09.02.19.02.28.04,2.72.46,2.92.76,2.54,3.62-.06.49-.16.8-.76.77-5.85-.31-10.87-2.46-15.05-6.6-1.99-1.97-3.38-4.33-4.72-6.74v.02Z" style="fill:#89a8d8;"/><path d="m398.81,248c-8.16.99-14.66,7.7-15.47,15.93-.06.62.1,1.62-.58,1.75-1.09.22-2.28.12-3.4-.02-.46-.06-.29-.75-.27-1.15.32-5.28,2.31-9.85,5.84-13.78,8.93-9.91,25.33-9.27,33.56,1.24,2.95,3.77,4.44,8.02,4.88,12.72.07.8-.15,1.15-1,1.09-.95-.07-2.02.23-2.82-.13-.93-.41-.37-1.63-.53-2.47-1.41-7.41-5.63-12.31-12.81-14.64-.9-.29-1.86-.39-2.79-.57-1.54-.4-3.08-.41-4.62,0Z" style="fill:#89a8d8;"/><path d="m403.13,218.03c7.48-.56,14.29-6.8,15.71-14.39.09-.47.15-.94.27-1.4.16-.65-.38-1.68.45-1.89,1.03-.26,2.18-.12,3.26-.03.48.04.31.61.32.97.15,3.86-1.12,7.33-3.13,10.5-6.44,10.15-18.8,13.58-29.35,7.85-7.03-3.81-10.93-9.95-11.59-18.04-.1-1.19.33-1.45,1.43-1.42,2.56.05,2.56,0,2.89,2.61.98,7.74,7.53,14.19,15.44,15.21,1.43.46,2.87.41,4.31.02Z" style="fill:#8aa8d7;"/><path d="m399.69,380.47c0,.47,0,.95,0,1.42-4.95,0-9.91.01-14.86.02-.39.26-.3.66-.3,1.03,0,4.16,0,8.33,0,12.49,0,.37-.07.77.27,1.05.41,1.28,1.34,1.72,2.62,1.72,4.86-.02,9.72.02,14.57-.03,1.11-.01,1.62.27,1.38,1.43-7.7,0-15.41,0-23.11,0-.01-10.19-.03-20.37-.04-30.56,0-3.01-.84-3.87-3.86-4.02-.44-.02-1.05.16-1.01-.62.04-.65.57-.53.97-.53,8.38,0,16.76,0,25.14,0,.51,0,1,.03,1.01.7,0,.76-.56.75-1.1.75-4.81,0-9.62,0-14.42,0-.84,0-1.62.06-2.14.84-.35.28-.28.68-.28,1.05,0,4.07,0,8.14,0,12.2,0,.37-.09.77.31,1.03,4.95,0,9.9.02,14.85.02Z" style="fill:#8aa7d9;"/><path d="m476.32,396.49c.42,1.27,1.35,1.72,2.63,1.71,4.86-.02,9.72.02,14.58-.03,1.11-.01,1.63.25,1.38,1.42-7.7,0-15.4,0-23.11,0,0-10.32-.02-20.64-.04-30.96,0-.55.2-1.15-.27-1.63-.61-1.69-1.97-2.03-3.56-2-.4,0-1.09.33-1.15-.41-.06-.72.55-.74,1.11-.74,2.72.02,5.43.04,8.15.05,0,10.31.01,20.62.04,30.94,0,.55-.19,1.15.24,1.64Z" style="fill:#8aa7d9;"/><path d="m431.53,397.03c.77.99,1.79,1.21,3.01,1.19,4.71-.06,9.42.01,14.13-.05,1.14-.01,1.59.31,1.35,1.44-7.26,0-14.52.01-21.78.02-.48,0-.95,0-1.36-.3,0-10.02,0-20.05-.01-30.07,0-3.38-.71-4.12-4.02-4.27-.82-1.15.49-.78.69-.79,1.66-.07,3.33-.04,4.99-.04,2.23,0,2.33.1,2.33,2.33,0,9.7,0,19.4.02,29.1,0,.52-.4,1.33.64,1.43Z" style="fill:#8aa8d7;"/><path d="m378.77,341.87c.26-.1.54-.28.78.01.87,1.09,2.45,1.09,3.29,2.42.49.77,1.84,1.12,2.87,1.36.54.13.87-.91,1.61-.99.49-.05,1.08-.53,1.35.18.2.55-.34.81-.8.98-.32.12-.69.2-.66.62.03.42.38.67.74.78.91.27,1.82.54,2.75.7,3.89.68,7.75,1.57,11.72,1.6,1.41.01,2.88-.11,4.6-.95-1.18-.18-1.83-.13-2.63.2-1.29.54-3.24.66-3.9-.21-.83-1.1-1.46-.72-2.36-.85-.91-.13-1.7-1.01-2.78-.57-.25.1-.45-.01-.64-.19-1.46-1.38-3.31-2.16-4.98-3.22-.56-.35-1.1-.6-.56-1.36,3.58,3.1,7.72,4.95,12.48,4.54,5.94-.5,11.2-2.59,14.78-7.74.52-.75.79-1.62,1.03-2.49.44-.55.24-1.19.24-1.79.02-15.22.03-30.43.04-45.65,1.22,0,2.45,0,3.67,0,0,.76.02,1.53.02,2.29,0,15.35.01,30.7.02,46.05-.83,4.05-3.51,6.68-6.8,8.82-3.32,2.16-7.04,3.12-10.94,3.48-2.01,0-4.03,0-6.04,0-5.87-.36-11.37-1.88-16.2-5.37-1.03-.74-2.02-1.55-2.71-2.65Zm37.89-.36c1.68,1.22,2.08-.07,2.94-.99,1.34-1.43.39-3.41,1.5-4.8.02-.02-.06-.19-.11-.2-1-.12-.69-.92-.69-1.46-.02-13.59-.01-27.17-.02-40.76,0-.58,0-1.13.48-1.58.43-.4.61-1.05.22-1.4-.55-.49-1.43-.45-2-.07-.66.44.3.71.35,1.12.04.38.09.75.09,1.13,0,14.68,0,29.37.01,44.05,0,.63,0,1.27-.41,1.77-.54.67-.93,1.35-.55,2.32-.63-.1-.74-.49-.91-.81-.15-.26-.42-.59-.59-.21-.57,1.31-2.34,1.97-2.05,3.71.12.76-.38.94-.81.74-1.71-.82-2.58.44-3.52,1.38-.41.41-.79.59-1.32.69-2.71.51-5.38,1.28-8.19,1.37.99.29,2.27.79,2.9.35,1.2-.84,2.38-.35,3.54-.55.24-.04.51.06.56.32.02.13-.14.31-.26.44-.16.17-.56.17-.36.67,1.9-1.01,4.17-.89,5.92-2.18,1.6-1.18,3.26-2.31,4.35-4.13-.18-.16-.97.14-1.05-.94Zm1.15-2.22c.3-1.08,1.05-1.99,1.05-3.16,0-14.35,0-28.7-.01-43.04,0-.42.25-1.16-.41-1.17-.67,0-.35.73-.43,1.16-.03.14,0,.29,0,.43,0,13.39-.04,26.79.04,40.18.01,1.88-.26,3.72-.23,5.61Z" style="fill:#2761a8;"/><path d="m413.19,195.74c-.66,5.2-4.75,9.24-9.86,10.3-6.59,1.36-13.17-3.67-14.16-10.01-.28-1.81-.32-1.81,1.54-1.8q2.19.01,2.84,2.09c1.18,3.79,4.73,6.1,8.69,5.64,3.77-.43,6.58-3.54,6.96-7.68.8-.01,1.61.05,2.39-.06,1.26-.19,1.71.35,1.61,1.53Z" style="fill:#2660af;"/><path d="m362.81,240.9c2.04-.21,3.9-.86,5.37-2.36,2.26-2.31,2.9-5.11,1.97-8.11-.96-3.13-3.27-4.98-6.51-5.46-1.01-.15-1.2-.47-1.18-1.4.05-2.88.01-2.88,2.93-2.44,4.79.72,8.95,5.78,9.18,10.62.26,5.31-1.73,9.23-6.29,11.85-1.32.76-2.77,1.26-4.33,1.31-.85.04-1.29-.27-1.2-1.21.08-.93.04-1.86.06-2.79Z" style="fill:#2561ad;"/><path d="m440.29,224.83c-3.11.23-5.5,1.59-7.06,4.37-2.37,4.25-.01,9.21,3.74,10.91.46.21,1.03.23,1.35.71.13.35.49.43.77.59,1.13.64.78,1.86.69,2.67-.09.75-1.14.49-1.84.26-1.11-.37-2.23-.62-3.23-1.33-.6-.42-1.23-1.11-2.15-.88-3.37-2.7-4.96-6.39-4.41-10.48.69-5.19,3.67-8.95,8.95-10.48.49-.14,1-.24,1.5-.36,1.46-.28,1.92.36,1.72,1.76-.1.74-.03,1.51-.03,2.27Z" style="fill:#2661ae;"/><path d="m390.61,266.05c2.02-3.58,5-5.57,9.16-6.07,7.42-.89,12.63,4.49,13.41,10.01.24,1.51-.45,1.99-1.88,1.78-.69-.1-1.41-.05-2.11-.06-.49-5.57-4.71-8.6-10.37-7.46-1.41-.3-3.21.86-3.69,2.38-.09.11-.18.22-.27.33-1.06-.17-1.22.08-1.08,1.73,0,0,.02-.01.02-.01-.83.14-.74.91-.91,1.44-.4,1.27-1.11,1.76-2.38,1.33-1.11-.38-.68-1.26-.65-2.12.05-1.17,1.12-2.05.76-3.27Z" style="fill:#2561af;"/><path d="m385.97,337.55c-.88-.42-.58-1.23-.58-1.9-.02-13.92-.02-27.83.01-41.75,0-1.15-.3-2.26-.31-3.4,0-.8-.59-.72-1.12-.72-1.81,0-3.62.04-5.43-.02-1.31-.04-1.76.54-1.76,1.81.03,5.58.01,11.15.01,16.73,0,8.91,0,17.82,0,26.74,0,.55.19,1.15-.22,1.65,0-15.82-.02-31.64-.03-47.46,3.04,0,6.07,0,9.11.01,0,15.27.01,30.54.03,45.81,0,.64-.21,1.34.25,1.93.01.18.03.37.04.55Z" style="fill:#295693;"/><path d="m484.94,301.8c-1.04-3.42-2-6.88-5.1-9.14-2.35-1.71-4.98-2.83-7.89-2.85-9.75-.07-19.49-.04-29.24,0-.88,0-1.87-.61-2.68.27-.01-.22-.04-.43-.25-.56-.02-.09-.03-.18-.02-.28.48-.01.95-.03,1.43-.03,9.81-.01,19.63-.03,29.44-.04,3.97.3,7.72,1.2,10.67,4.13,2.35,2.34,3.58,5.21,3.92,8.49-.09,0-.18,0-.27,0Z" style="fill:#3a6295;"/><path d="m330.75,345.57c-.95-.09-1.11-.78-1.06-1.53.45-6.51.18-13.02.11-19.53-.01-1.41.03-2.81.07-4.21.02-.8.41-.93,1.08-.9,7.7.32,15.41.06,23.11.14.5,0,1-.01.98-.71-.02-.59-.12-1.17-.86-1.27-.37-.05-.76-.02-1.14-.02-6.38,0-12.76,0-19.13,0-.94,0-1.9-.14-2.83.2-.45.16-.87.08-.89-.55.52.02,1.04.05,1.57.05,7.94.01,15.88.03,23.83.04,0,.83-.01,1.66-.02,2.49-7.97.02-15.95.03-23.92.07-.47,0-1.05-.28-1.43.29-.02,7.89-.03,15.78-.05,23.67,0,.34.01.67.28.93.1.28.2.56.29.84Z" style="fill:#295490;"/><path d="m431.53,397.03c-1.04-.1-.64-.92-.64-1.43-.02-9.7-.02-19.4-.02-29.1,0-2.23-.1-2.33-2.33-2.33-1.66,0-3.33-.03-4.99.04-.2,0-1.51-.36-.69.79-.45.06-.89.11-.86-.57.03-.55.43-.55.82-.55,2.57,0,5.14.02,7.71-.02.95-.02.93.53.93,1.19-.01,3.38,0,6.76,0,10.14,0,6.66,0,13.32,0,19.99,0,.62.05,1.23.08,1.85Z" style="fill:#98aac7;"/><path d="m504.98,395.28c-.02-2.23,2.1-4.24,4.46-4.23,2.43.01,4.37,1.92,4.4,4.32.03,2.68-2.1,4.54-5.22,4.56-1.62,0-3.62-2.54-3.64-4.65Zm7.96.22c.05-1.84-1.52-3.47-3.4-3.54-1.88-.07-3.7,1.6-3.71,3.4,0,1.59,1.73,3.59,3.22,3.7,1.93.14,3.84-1.61,3.89-3.55Z" style="fill:#345c95;"/><path d="m254.38,293.22c.08,0,.16.01.24.04.01,15.73.02,31.46.04,47.19,0,2.77.03,5.53-.02,8.29-.02.89.28,1.17,1.14,1.13,1.52-.07,3.05-.04,4.57-.06,0,.09.01.18,0,.27-1.66.02-3.33.02-4.99.07-.73.02-1.05-.24-1.01-.99.04-.62.01-1.24.01-1.86,0-18.03,0-36.07.01-54.1Z" style="fill:#85a2ca;"/><path d="m439.76,289.25c-.01.09,0,.19.02.28,0,.05-.02.09-.02.14,0,19.71,0,39.42-.05,59.13,0,1.26.7,1.08,1.44,1.11.01.07.02.14.04.21-.91.08-1.77.32-1.76-1.19.04-19.89.04-39.78.05-59.67.1,0,.19,0,.29,0Z" style="fill:#96b1de;"/><path d="m302.97,349.83c0-19.35.01-38.69.02-58.04,0-.84,0-1.68,0-2.52.51.2.3.65.3.98,0,19.72,0,39.43,0,59.15,0,.14-.03.28-.05.42-.09,0-.18,0-.27,0Z" style="fill:#4e73aa;"/><path d="m322.5,349.85c-.02-1.38-.05-2.76-.05-4.14,0-18.32,0-36.65,0-54.97,0-.54-.23-1.16.31-1.6,0,0-.02.14-.02.14,0,20.19,0,40.38.01,60.57-.09,0-.17,0-.26,0Z" style="fill:#7197be;"/><path d="m260.36,350.1c0-.09,0-.18,0-.27,0-8.33.02-16.67.03-25,.01-9.1.02-18.19.03-27.29.35.03.56.19.52.57-.5.69-.25,1.47-.26,2.21-.02,16.01,0,32.03-.02,48.04,0,.58.27,1.25-.3,1.75Z" style="fill:#9ebcd8;"/><path d="m474.92,345.56c.55-.23.69.13.9.55,1.24,2.46,3.43,3.4,6.01,3.45,4.51.08,9.02.02,13.53.03.62,0,1.35.12,1.37-.78.02-.95-.74-.89-1.41-.94-1.95-.16-3.84.12-5.68.78-.62.23-1.01-.14-1.32-.57-.3-.41.11-.43.37-.51,2.12,0,4.25,0,6.37,0q2.26,0,2.12,2.27c-5.43.02-10.87.05-16.3.07-2.85-.27-4.96-1.54-5.96-4.35Z" style="fill:#2d5b96;"/><path d="m298.71,289.28c-.52.67-.58,1.43-.58,2.25.01,14.8.01,29.6,0,44.39,0,.55.21,1.15-.26,1.63,0-10.67-.02-21.34-.02-32.01,0-5.43.03-10.86.04-16.29.27,0,.54.01.82.02Z" style="fill:#2a4f8c;"/><path d="m297.89,289.26c-.01,5.43-.04,10.86-.04,16.29,0,10.67,0,21.34.02,32.01-.26.03-.51.04-.54-.33.45-.75.22-1.58.22-2.37.02-14.68,0-29.35.03-44.03,0-.52-.3-1.15.32-1.57Z" style="fill:#a6c1ec;"/><path d="m421.45,337.6c0-15.35-.01-30.7-.02-46.05,0-.76-.01-1.53-.02-2.29.57.31.3.85.3,1.27.01,15.09.01,30.18,0,45.26,0,.61.09,1.24-.26,1.81Z" style="fill:#587db2;"/><path d="m385.93,337c-.46-.59-.25-1.29-.25-1.93-.02-15.27-.02-30.54-.03-45.81.43.16.31.55.31.85,0,15.63-.02,31.26-.03,46.88Z" style="fill:#7197be;"/><path d="m269.22,296.38c-1.04-.41-1.52-1.37-2.05-2.22-.73-1.15-1.61-2.19-2.3-3.38-.5-.87-1.38-1.11-2.54-1.08-3.83.09-7.67.29-11.51-.12-2.11-.22-4.27-.06-6.41-.07.08-.11.16-.21.24-.32,6.58,0,13.16.01,19.73.02,1.61,2.39,3.22,4.78,4.84,7.17Z" style="fill:#3b6295;"/><path d="m417.74,289.27c0,15.22-.02,30.43-.04,45.65,0,.6.2,1.24-.24,1.79-.01-6.19-.03-12.39-.04-18.58,0-9.1,0-18.2.01-27.3,0-.51-.3-1.14.3-1.56Z" style="fill:#597fa6;"/><path d="m322.5,349.85c.09,0,.17,0,.26,0,12.31,0,24.63.02,36.94.02,2.12,0,1.92.42,1.94-1.99,0-.09-.02-.19-.02-.28,0-.08,0-.17,0-.25.64.69.23,1.53.28,2.3.03.49-.46.51-.86.51-1.05,0-2.09,0-3.14,0-11.22,0-22.44.01-33.66,0-.58,0-1.24.27-1.74-.29Z" style="fill:#87a2d2;"/><path d="m556.41,334.69c-.34-1.28.2-2.52.45-3.67.93-4.26,1.16-8.54.99-12.86-.08-2.05-.46-4.09-.72-6.13-.06-.47-.25-.93.14-1.34.31,2.27,1,4.49.95,6.81,0,2.51,0,5.02,0,7.53-.29,3.28-.59,6.56-1.81,9.67Z" style="fill:#305b92;"/><path d="m484.94,301.8c.09,0,.18,0,.27,0,.68,5.9.56,11.67-2.91,16.86-.17-.14-.21-.33-.11-.5,2.58-4.37,2.9-9.18,2.74-14.08-.02-.76,0-1.52,0-2.28Z" style="fill:#375f94;"/><path d="m359.91,289.27c.09-.02.19-.03.28-.02q.1,2.54-2.36,2.54c-8.56-.01-17.11-.02-25.67-.04.5-.43,1.09-.24,1.64-.24,8.61-.01,17.21-.01,25.82-.02.62-.68.18-1.49.28-2.24Z" style="fill:#5f88b6;"/><path d="m361.62,347.34c0,.08,0,.17,0,.25-.94,0-1.88,0-2.83-.01-7.84,0-15.69,0-23.53-.02-.55,0-1.15.19-1.65-.23,9.34,0,18.68,0,28.01,0Z" style="fill:#5378ad;"/><path d="m448.31,347.58c0-7.47,0-14.94.02-22.41,0-.53-.26-1.16.31-1.59,0,.1,0,.2,0,.3-.01,7.99-.02,15.98-.03,23.97,0,.66-.04,1.33-.06,1.99-.08,0-.17,0-.25,0,0-.75,0-1.51,0-2.26Z" style="fill:#496f9e;"/><path d="m355.59,317.29c-7.94-.01-15.88-.02-23.83-.04-.52,0-1.04-.03-1.57-.05,0-.09.02-.17.05-.25.09,0,.18-.01.26-.03,7.84.02,15.68.03,23.51.07.52,0,1.14-.28,1.57.31Z" style="fill:#a0bee7;"/><path d="m330.22,320.14c.38-.57.96-.29,1.43-.29,7.97-.04,15.95-.05,23.92-.07-.4.63-1.03.32-1.55.32-7.84.04-15.68.05-23.52.07-.09-.01-.19-.02-.28-.04Z" style="fill:#8aaed0;"/><path d="m432.56,242.12c.92-.22,1.55.46,2.15.88,1,.71,2.12.96,3.23,1.33.7.23,1.75.49,1.84-.26.09-.81.44-2.03-.69-2.67-.28-.16-.63-.24-.77-.59.65.02,1.31.05,1.96.07,0,1.05-.01,2.09.03,3.14.03.65-.14,1-.87.9-.37-.05-.76-.02-1.14-.02-2.12-.5-4.16-1.18-5.74-2.79Z" style="fill:#365f91;"/><path d="m390.61,266.05c.35,1.22-.71,2.11-.76,3.27-.04.86-.46,1.74.65,2.12,1.27.43,1.98-.05,2.38-1.33.17-.53.07-1.3.91-1.44-.22.86-.5,1.71-.65,2.59-.16.94-1.01.61-1.44.72-2.49.64-2.96.11-2.42-2.4.27-1.25.53-2.49,1.34-3.54Z" style="fill:#335c92;"/><path d="m476.4,334.98c-1.57-1.12-2.21-2.92-3.17-4.47-.63-1.01-1.9-1.82-1.42-3.32,1.55,2.59,3.23,5.1,4.59,7.8Z" style="fill:#3b6198;"/><path d="m480.88,349.91c5.43-.02,10.87-.05,16.3-.07-.17.42-.55.3-.86.3-4.79,0-9.57.01-14.36,0-.38,0-.76.02-1.09-.24Z" style="fill:#7699c4;"/><path d="m448.65,323.88c0-.1,0-.2,0-.3,3.88,0,7.76-.02,11.65-.02.32,0,.67-.06.93.22-4.19.03-8.38.07-12.58.1Z" style="fill:#92b1df;"/><path d="m302.99,289.28c0,.84,0,1.68,0,2.52-.13-1.87-.99-2.65-2.89-2.02-.42.14-.85-.06-1.09-.5,1.33,0,2.65,0,3.98,0Z" style="fill:#2a4f8c;"/><path d="m505.2,316.91c0,2.89,0,5.79,0,8.68-.42-2.89-.42-5.79,0-8.68Z" style="fill:#758eb2;"/><path d="m302.97,349.83c.09.01.18.02.27,0-1.32.67-2.74.27-4.1.28-1.17,0-2.42.43-3.55-.29,2.46,0,4.92,0,7.38,0Z" style="fill:#83a6d1;"/><path d="m558.22,325.02c0-2.51,0-5.02,0-7.53.41,2.51.42,5.02,0,7.53Z" style="fill:#7a9ec9;"/><path d="m448.3,349.84c.08,0,.17,0,.25,0-.31.57-.85.3-1.27.3-2.03.02-4.07-.02-6.1-.03-.01-.07-.03-.14-.04-.21,2.39-.02,4.77-.04,7.16-.07Z" style="fill:#6c8fc1;"/><path d="m395.12,266.64c.47-1.51,2.28-2.68,3.69-2.38-1.44.47-2.57,1.4-3.69,2.38Z" style="fill:#335c92;"/><path d="m528.12,349.9c2.3,0,4.59.01,6.89.02-2.3.41-4.59.4-6.89-.02Z" style="fill:#a3bbe6;"/><path d="m409.18,271.72c.7.02,1.42-.04,2.11.06,1.43.21,2.12-.28,1.88-1.78.57,1.91.46,2.12-1.45,2.04-.85-.03-1.77.35-2.55-.32Z" style="fill:#7d9cbe;"/><path d="m397.67,349.89c2.01,0,4.03,0,6.04,0-2.01.44-4.03.4-6.04,0Z" style="fill:#98b5df;"/><path d="m413.19,195.74c.1-1.18-.35-1.71-1.61-1.53-.78.12-1.59.05-2.39.06,1.25-.7,2.62-.38,3.88-.2.66.09.39,1.07.12,1.67Z" style="fill:#698dc0;"/><path d="m534.45,289.45c-1.83,0-3.66,0-5.49,0,1.83-.41,3.66-.41,5.49,0Z" style="fill:#94b7dd;"/><path d="m362.81,240.9c-.01.93.03,1.87-.06,2.79-.08.95.35,1.25,1.2,1.21-1.13.56-1.63.17-1.47-1.04.13-.99-.41-2.05.32-2.97Z" style="fill:#6e8eb5;"/><path d="m393.76,268.7c-.13-1.65.02-1.9,1.08-1.73-.36.58-.72,1.15-1.08,1.73Z" style="fill:#335c92;"/><path d="m448.3,349.84c-2.39.02-4.77.04-7.16.07-.74-.03-1.44.15-1.44-1.11.05-19.71.05-39.42.05-59.13,0-.05.01-.09.02-.14.22.12.24.34.25.56,0,19.26,0,38.52-.03,57.78,0,1.29.34,1.83,1.69,1.74,1.57-.1,3.15-.1,4.72,0,1.19.07,1.84-.2,1.65-1.53-.02-.15.16-.32.24-.49,0,.75,0,1.51,0,2.26Z" style="fill:#2a4d8f;"/><path d="m448.64,292.7c0,9.03,0,18.07,0,27.1-.51-.34-.32-.86-.32-1.3-.01-8.27-.01-16.53,0-24.8,0-.45-.18-.97.32-1.31,0,.1,0,.21,0,.31Z" style="fill:#496f9e;"/><path d="m448.63,319.78c6.29.02,12.57.04,18.86.06-.34.37-.79.26-1.21.26-5.46.08-10.92-.14-16.39.1-.4.02-.98.1-1.27-.43Z" style="fill:#4f72a8;"/><path d="m448.64,292.7c0-.1,0-.21,0-.31,5.4,0,10.8-.01,16.21,0,.51,0,1.05-.1,1.51.25-5.38,0-10.76.02-16.14.03-.52,0-1.05.03-1.57.04Z" style="fill:#8aadd1;"/><path d="m260.41,297.53c-.01,9.1-.02,18.19-.03,27.29,0,8.33-.02,16.67-.03,25-1.52.01-3.05-.01-4.57.06-.87.04-1.16-.23-1.14-1.13.05-2.76.03-5.53.02-8.29-.01-15.73-.02-31.46-.04-47.19.72.31.3.94.3,1.37.03,15.02.02,30.04.02,45.05,0,2.81.05,5.63-.02,8.44-.02,1.08.23,1.52,1.42,1.48,4.04-.15,3.74.69,3.74-3.74,0-14.97,0-29.94,0-44.91,0-.8.12-1.62-.18-2.41-.19-.49.03-.83.51-1.01Z" style="fill:#29518e;"/><path d="m549.02,316.95c-.13-5.79-1.02-11.43-3.44-16.75-.87-1.91-2.16-3.54-3.47-5.15,1-.06,1.35.21,1.92,1.12,2.51,4.02,4.05,8.4,4.83,13.05.36,2.14.73,4.29.72,6.47-.03,5.08.24,10.17-.33,15.23-.19,1.7-.25,3.49-1.1,5.06-.43.8-.09,1.71-.47,2.49-.1.2.03.68-.43.51-.14-.05-.18-.4-.26-.61,1.49-4.43,2.03-9.01,2.03-13.66.47-2.58.46-5.17,0-7.75Z" style="fill:#2f5c93;"/><path d="m358.79,347.58c.94,0,1.88,0,2.83.01,0,.09.03.19.02.28-.02,2.41.18,1.99-1.94,1.99-12.31,0-24.63,0-36.94-.02,0-20.19,0-40.38-.01-60.57.18,0,.36,0,.54,0-.47.8-.2,1.68-.26,2.52,0,17.96,0,35.92-.02,53.87,0,1.03.41,2.04.05,3.09-.16.47.13.82.7.81.19,0,.38,0,.57,0,11.91,0,23.82,0,35.73-.01.42,0,1.08.35,1.19-.54.11-.8.01-1.28-.98-1.19-.49.05-1.06.21-1.48-.25Z" style="fill:#285391;"/><path d="m323.03,291.8c.07-.84-.2-1.72.26-2.52,7.27-.02,14.53-.04,21.8-.04,4.94,0,9.88.03,14.82.04-.09.75.34,1.56-.28,2.24.24-1.44-.48-1.74-1.79-1.74-10.55.04-21.1.02-31.65.03q-2.45,0-3.16,2.01Z" style="fill:#375f98;"/><path d="m395.95,233.07c0-3.07,2.26-5.37,5.28-5.35,2.84.02,5.31,2.47,5.3,5.27,0,2.88-2.5,5.3-5.45,5.29-2.84-.01-5.12-2.33-5.13-5.21Z" style="fill:#89a8d7;"/><path d="m416.66,341.51c.08,1.07.87.78,1.05.94-1.09,1.83-2.75,2.95-4.35,4.13-1.75,1.29-4.02,1.17-5.92,2.18-.2-.5.2-.5.36-.67.12-.13.28-.31.26-.44-.04-.27-.32-.36-.56-.32-1.16.2-2.34-.29-3.54.55-.63.44-1.91-.06-2.9-.35,2.82-.08,5.48-.86,8.19-1.37.53-.1.91-.28,1.32-.69.94-.94,1.81-2.2,3.52-1.38.43.21.93.02.81-.74-.28-1.74,1.48-2.4,2.05-3.71.17-.39.45-.06.59.21.18.32.29.71.91.81-.38-.97,0-1.65.55-2.32.4-.5.41-1.14.41-1.77,0-14.68,0-29.37-.01-44.05,0-.38-.05-.76-.09-1.13-.05-.41-1.02-.68-.35-1.12.57-.38,1.45-.42,2,.07.39.35.22,1-.22,1.4-.48.44-.48,1-.48,1.58,0,13.59,0,27.17.02,40.76,0,.54-.32,1.34.69,1.46.05,0,.13.17.11.2-1.11,1.39-.17,3.37-1.5,4.8-.86.92-1.26,2.21-2.94.99Z" style="fill:#2661af;"/><path d="m417.81,339.29c-.02-1.88.25-3.73.23-5.61-.08-13.39-.04-26.79-.04-40.18,0-.14-.02-.29,0-.43.08-.42-.24-1.16.43-1.16.66,0,.41.74.41,1.17.01,14.35,0,28.7.01,43.04,0,1.17-.76,2.08-1.05,3.16Z" style="fill:#2661af;"/><path d="m508.68,392.8c.64-.17,1.2.18,1.8.28.34.06.75.3.71.61-.16,1.34-.21,2.66.28,3.95.07.19-.21.27-.4.27-.2,0-.36-.04-.43-.28-.11-.36-.22-.73-.36-1.08-.27-.67-.84-.69-1.43-.63-.71.06-.33.64-.46.98-.13.35.36,1.07-.56.97,0-1.23.06-2.47-.04-3.7-.06-.76.28-1.12.88-1.38Zm.66.78c-.42.07-.97-.11-.96.67,0,.58.14.89.79.83.58-.05,1.22-.04,1.22-.82,0-.64-.57-.64-1.05-.67Z" style="fill:#315e93;"/><path d="m508.68,392.8c-.6.26-.94.62-.88,1.38.09,1.23.03,2.47.04,3.7-.63-1.51-.21-3.08-.25-4.62-.02-.69.65-.47,1.09-.46Z" style="fill:#6287b7;"/></g></svg>